{
  "asset": {
    "generator": "Khronos glTF Blender I/O v1.0.5",
    "version": "2.0"
  },
  "scene": 0,
  "scenes": [
    {
      "name": "Scene",
      "nodes": [
        0
      ]
    }
  ],
  "nodes": [
    {
      "mesh": 0
    }
  ],
  "materials": [
    {
      "doubleSided": true,
      "pbrMetallicRoughness": {
        "baseColorTexture": {
          "index": 0,
          "texCoord": 0
        },
        "metallicFactor": 0,
        "roughnessFactor": 0.5,
        "baseColorFactor": [
          1,
          1,
          1,
          1
        ]
      },
      "emissiveFactor": [
        0,
        0,
        0
      ],
      "alphaMode": "OPAQUE",
      "name": "watchtower"
    }
  ],
  "meshes": [
    {
      "name": "watchtower",
      "primitives": [
        {
          "attributes": {
            "POSITION": 0,
            "NORMAL": 1,
            "TEXCOORD_0": 2
          },
          "indices": 3,
          "material": 0,
          "mode": 4
        }
      ]
    }
  ],
  "textures": [
    {
      "source": 0,
      "sampler": 0
    }
  ],
  "images": [
    {
      "name": "Image_0",
      "uri": "Wood_Tower_img0.jpg"
    }
  ],
  "accessors": [
    {
      "bufferView": 1,
      "componentType": 5126,
      "count": 4886,
      "max": [
        13.270933151245117,
        48.083831787109375,
        13.27137279510498
      ],
      "min": [
        -13.271811485290527,
        -0.000001983195716093178,
        -13.27137565612793
      ],
      "type": "VEC3",
      "byteOffset": 0
    },
    {
      "bufferView": 2,
      "componentType": 5126,
      "count": 4886,
      "type": "VEC3",
      "byteOffset": 0,
      "min": [
        -1,
        -1,
        -1
      ],
      "max": [
        1,
        1,
        1
      ]
    },
    {
      "bufferView": 3,
      "componentType": 5126,
      "count": 4886,
      "type": "VEC2",
      "byteOffset": 0,
      "min": [
        0.00041182225686497986,
        0.0004118680953979492
      ],
      "max": [
        0.9960617423057556,
        0.9995881915092468
      ]
    },
    {
      "bufferView": 0,
      "componentType": 5123,
      "count": 6108,
      "type": "SCALAR",
      "byteOffset": 0
    }
  ],
  "bufferViews": [
    {
      "buffer": 0,
      "byteLength": 12216,
      "byteOffset": 0,
      "target": 34963
    },
    {
      "buffer": 0,
      "byteOffset": 12216,
      "byteLength": 58632,
      "byteStride": 12,
      "target": 34962
    },
    {
      "buffer": 0,
      "byteOffset": 70848,
      "byteLength": 58632,
      "byteStride": 12,
      "target": 34962
    },
    {
      "buffer": 0,
      "byteOffset": 129480,
      "byteLength": 39088,
      "byteStride": 8,
      "target": 34962
    }
  ],
  "buffers": [
    {
      "uri": "Wood_Tower_data.bin",
      "byteLength": 168568
    }
  ],
  "samplers": [
    {
      "magFilter": 9729,
      "minFilter": 9729,
      "wrapS": 10497,
      "wrapT": 10497
    }
  ]
}